<svg width="21" height="21" viewBox="0 0 21 21" fill="none" xmlns="http://www.w3.org/2000/svg">
<path d="M17.8293 1.72319C15.8599 0.609678 13.2604 0 10.5033 0C7.74616 0 5.1466 0.613912 3.17724 1.72319C1.1291 2.87903 0 4.43286 0 6.09677V6.41855C0 6.60484 0.236324 6.75726 0.525163 6.75726H3.67614C3.96498 6.75726 4.20131 6.60484 4.20131 6.41855V6.09677C4.20131 4.22964 7.03062 2.70968 10.5033 2.70968C13.9759 2.70968 16.8052 4.22964 16.8052 6.09677C16.8052 7.41351 15.361 8.62016 13.1225 9.1748C11.7308 9.51774 10.5492 10.119 9.70239 10.9065C8.84244 11.7109 8.39605 12.6762 8.39605 13.6542V14.5645C8.39605 14.7508 8.63237 14.9032 8.92121 14.9032H12.0722C12.361 14.9032 12.5974 14.7508 12.5974 14.5645V13.6034C12.6008 13.1924 12.7961 12.7916 13.1579 12.4532C13.5198 12.1149 14.0313 11.8547 14.6258 11.7067C18.4989 10.7456 21 8.54395 21 6.09677C21.0065 4.43286 19.8774 2.87903 17.8293 1.72319ZM7.87745 19.3065C7.87745 19.7556 8.1541 20.1864 8.64653 20.504C9.13897 20.8216 9.80686 21 10.5033 21C11.1997 21 11.8676 20.8216 12.36 20.504C12.8524 20.1864 13.1291 19.7556 13.1291 19.3065C13.1291 18.8573 12.8524 18.4265 12.36 18.1089C11.8676 17.7913 11.1997 17.6129 10.5033 17.6129C9.80686 17.6129 9.13897 17.7913 8.64653 18.1089C8.1541 18.4265 7.87745 18.8573 7.87745 19.3065Z" fill="white"/>
</svg>
