<svg width="27" height="26" viewBox="0 0 27 26" fill="none" xmlns="http://www.w3.org/2000/svg">
<path d="M25.9407 21.2181C25.2635 19.7586 24.2806 18.4329 23.0469 17.3148C21.8169 16.1935 20.3599 15.2995 18.7563 14.6822C18.742 14.6756 18.7276 14.6724 18.7133 14.6658C20.9501 13.196 22.4042 10.8018 22.4042 8.1005C22.4042 3.62563 18.4189 0 13.5 0C8.58115 0 4.5958 3.62563 4.5958 8.1005C4.5958 10.8018 6.04992 13.196 8.28674 14.6691C8.27237 14.6756 8.25801 14.6789 8.24365 14.6854C6.63515 15.3028 5.19181 16.1879 3.95312 17.3181C2.72057 18.437 1.73786 19.7625 1.05926 21.2214C0.3926 22.6496 0.0330566 24.1808 8.97816e-05 25.7322C-0.000868515 25.767 0.00585282 25.8017 0.0198579 25.8342C0.033863 25.8666 0.0548684 25.8962 0.0816364 25.9212C0.108404 25.9461 0.140393 25.966 0.175718 25.9795C0.211044 25.993 0.24899 26 0.287322 26H2.44156C2.59954 26 2.7252 25.8857 2.7288 25.7452C2.8006 23.2236 3.91363 20.8621 5.88117 19.0721C7.91693 17.2201 10.6205 16.201 13.5 16.201C16.3795 16.201 19.0831 17.2201 21.1188 19.0721C23.0864 20.8621 24.1994 23.2236 24.2712 25.7452C24.2748 25.8889 24.4005 26 24.5584 26H26.7127C26.751 26 26.789 25.993 26.8243 25.9795C26.8596 25.966 26.8916 25.9461 26.9184 25.9212C26.9451 25.8962 26.9661 25.8666 26.9801 25.8342C26.9941 25.8017 27.0009 25.767 26.9999 25.7322C26.964 24.1709 26.6086 22.652 25.9407 21.2181ZM13.5 13.7186C11.852 13.7186 10.301 13.1339 9.13407 12.0724C7.96719 11.0108 7.32451 9.59975 7.32451 8.1005C7.32451 6.60126 7.96719 5.1902 9.13407 4.12864C10.301 3.06709 11.852 2.48241 13.5 2.48241C15.148 2.48241 16.699 3.06709 17.8659 4.12864C19.0328 5.1902 19.6755 6.60126 19.6755 8.1005C19.6755 9.59975 19.0328 11.0108 17.8659 12.0724C16.699 13.1339 15.148 13.7186 13.5 13.7186Z" fill="white"/>
</svg>
