<svg width="27" height="26" viewBox="0 0 27 26" fill="none" xmlns="http://www.w3.org/2000/svg">
<path d="M25.9336 12.3408L15.6484 0.0817179C15.6271 0.0558187 15.6017 0.0352671 15.5739 0.0212433C15.546 0.0072195 15.5161 0 15.4858 0C15.4556 0 15.4257 0.0072195 15.3979 0.0212433C15.37 0.0352671 15.3446 0.0558187 15.3233 0.0817179L8.39591 8.33866C8.35231 8.39098 8.32755 8.46201 8.32701 8.53629C8.32646 8.61058 8.35018 8.68212 8.39301 8.73536L8.39591 8.73887L9.55677 10.1221L6.15545 14.1698C6.11186 14.2221 6.08709 14.2931 6.08655 14.3674C6.08601 14.4417 6.10973 14.5132 6.15255 14.5665L6.15545 14.57L7.3018 15.9356L1.81384 22.5004H0.235074C0.107379 22.5004 0 22.6268 0 22.7813V24.7192C0 24.8736 0.104477 25 0.232172 25H10.2417C10.3026 25 10.3607 24.9719 10.4042 24.9193L12.6127 22.2652L13.7852 23.6625C13.8065 23.6884 13.8318 23.7089 13.8597 23.7229C13.8876 23.737 13.9175 23.7442 13.9477 23.7442C13.9779 23.7442 14.0078 23.737 14.0357 23.7229C14.0636 23.7089 14.0889 23.6884 14.1102 23.6625L17.5086 19.6042L18.6724 20.9909C18.6937 21.0168 18.719 21.0373 18.7469 21.0514C18.7748 21.0654 18.8047 21.0726 18.8349 21.0726C18.8651 21.0726 18.895 21.0654 18.9229 21.0514C18.9508 21.0373 18.9761 21.0168 18.9974 20.9909L25.9249 12.7339C26.0235 12.6286 26.0235 12.4531 25.9336 12.3408ZM9.45519 22.4794H4.80595L8.70644 17.8103L11.0311 20.5801L9.45519 22.4794ZM13.9477 20.2993L8.97344 14.3699L10.9643 11.9967L15.9386 17.9261L13.9477 20.2993ZM18.8378 17.6277L11.211 8.53877L15.4858 3.44488L23.1127 12.5373L18.8378 17.6277Z" fill="white"/>
</svg>
