<svg width="21" height="20" viewBox="0 0 21 20" fill="none" xmlns="http://www.w3.org/2000/svg">
<path d="M20.4572 9.335L0.569118 0.0450593C0.517149 0.0205909 0.454695 0.00538495 0.388927 0.00118745C0.323159 -0.00301006 0.256746 0.0039712 0.197314 0.0213296C0.137881 0.038688 0.0878417 0.0657196 0.05294 0.0993197C0.0180382 0.13292 -0.000309758 0.171726 3.95656e-06 0.211281V2.25079C3.95656e-06 2.38008 0.101474 2.50408 0.26912 2.58324L16.1514 9.99989L0.26912 17.4165C0.0970624 17.4957 3.95656e-06 17.6197 3.95656e-06 17.749V19.7885C3.95656e-06 19.9653 0.339707 20.0629 0.569118 19.9547L20.4572 10.6648C20.6263 10.5859 20.763 10.485 20.8571 10.3698C20.9511 10.2546 21 10.1281 21 9.99989C21 9.87168 20.9511 9.74516 20.8571 9.62994C20.763 9.51473 20.6263 9.41386 20.4572 9.335Z" fill="white"/>
</svg>
