<svg width="17" height="23" viewBox="0 0 17 23" fill="none" xmlns="http://www.w3.org/2000/svg">
<path d="M12.4921 6.69134C7.26179 3.29967 9.62869 0 9.62869 0C4.54391 2.86055 3.41824 7.22665 4.66376 12.747C2.83186 11.2958 2.5665 9.57698 2.62642 7.31029C0.293754 9.74845 -0.125697 12.3288 0.028387 15.1224C0.137891 17.2552 1.0852 19.2646 2.67303 20.732C4.26086 22.1994 6.36682 23.0117 8.55233 22.9999C10.7378 22.988 12.8344 22.1529 14.4055 20.6683C15.9766 19.1838 16.901 17.1643 16.9862 15.0304C17.166 11.3795 15.5823 8.69456 12.4921 6.69134ZM9.068 21.0777C7.89977 21.0817 6.75683 20.7454 5.78515 20.1117C6.01627 20.134 6.2474 20.1451 6.47853 20.1451C8.48187 20.1363 10.4003 19.3533 11.8148 17.9672C13.2294 16.5811 14.0253 14.7045 14.0287 12.747C14.0287 12.5212 14.0172 12.2953 13.9944 12.0695C14.6437 13.0115 14.9922 14.1206 14.996 15.2563C14.9971 16.0196 14.8443 16.7758 14.5464 17.4815C14.2484 18.1872 13.8111 18.8286 13.2595 19.3692C12.7078 19.9098 12.0526 20.3389 11.3312 20.632C10.6099 20.9252 9.83644 21.0766 9.05516 21.0777H9.068Z" fill="#7E0202"/>
</svg>
