<svg width="100" height="100" viewBox="0 0 100 100" fill="none" xmlns="http://www.w3.org/2000/svg">
<path d="M28.409 35.7402C31.6287 33.9926 35.2137 37.5406 37.4676 42.1496C37.4975 44.5742 38.4059 46.7031 39.5152 48.4113L35.2022 52.3961C29.3983 49.7656 23.6266 39.9676 27.4242 36.4586C27.7222 36.1798 28.0538 35.9392 28.4113 35.7424L28.409 35.7402ZM41.034 50.2832L36.6422 54.3379C42.0094 63.8744 49.5213 54.2754 41.034 50.2832ZM58.157 72.5332C57.7995 72.73 57.4679 72.9707 57.1699 73.2496C53.3723 76.7584 59.1438 86.5562 64.9479 89.1867L69.2609 85.202C68.1516 83.4938 67.2453 81.365 67.2129 78.9402C64.9594 74.3315 61.3744 70.7834 58.1543 72.5309L58.157 72.5332ZM70.782 87.0766L66.39 91.1307C71.7572 100.663 79.2693 91.0658 70.7795 87.0764L70.782 87.0766ZM58.0527 40.6055C55.1867 42.8867 57.0543 47.5717 60.415 51.4457C62.6338 52.4211 64.2404 54.0877 65.3799 55.775L70.7379 53.3596C70.5807 46.9893 63.8152 37.8498 59.1022 39.9768C58.7291 40.142 58.3781 40.3532 58.0572 40.6053L58.0527 40.6055ZM66.5127 57.9063C66.8732 67.2789 78.643 64.11 71.958 55.4467L66.5127 57.9063ZM26.1416 6.45645C23.9318 9.37774 26.902 13.4436 31.1109 16.3721C33.5035 16.765 35.4727 17.99 36.9938 19.3354L41.5793 15.6674C39.8574 9.53496 31.0369 2.34903 26.9992 5.58477C26.6784 5.83692 26.3902 6.1281 26.1414 6.45156L26.1416 6.45645ZM38.6231 21.1174C41.2949 30.1088 51.9137 24.1223 43.2899 17.3846L38.6254 21.1174H38.6231Z" fill="#2F886D"/>
</svg>
