<svg width="45" height="45" viewBox="0 0 45 45" fill="none" xmlns="http://www.w3.org/2000/svg">
<path fill-rule="evenodd" clip-rule="evenodd" d="M7.63959 16.0596C7 17.4502 7 19.0322 7 22.1963V32.0779C7 36.4721 7 38.6692 8.36509 40.0343C9.73018 41.3994 11.9273 41.3994 16.3214 41.3994H16.4866V29.7477C16.4866 27.9084 17.9777 26.4174 19.817 26.4174H26.808C28.6473 26.4174 30.1384 27.9084 30.1384 29.7477V41.3994H30.3036C34.6977 41.3994 36.8948 41.3994 38.2599 40.0343C39.625 38.6692 39.625 36.4721 39.625 32.0779V22.1963C39.625 19.0322 39.625 17.4502 38.9854 16.0596C38.3458 14.669 37.1446 13.6394 34.7423 11.5803L32.412 9.58282C28.0698 5.86094 25.8987 4 23.3125 4C20.7263 4 18.5552 5.86094 14.213 9.58282L14.213 9.58282L11.8827 11.5803C9.48035 13.6394 8.27919 14.669 7.63959 16.0596ZM28.1384 41.3994V29.7477C28.1384 29.013 27.5428 28.4174 26.808 28.4174H19.817C19.0822 28.4174 18.4866 29.013 18.4866 29.7477V41.3994H28.1384Z" />
</svg>
