<svg width="32" height="32" viewBox="0 0 32 32" fill="none" xmlns="http://www.w3.org/2000/svg">
<path d="M30.5455 7.11111H22.3025V1.77778C22.3025 1.30628 22.1493 0.854097 21.8765 0.520699C21.6037 0.187301 21.2338 0 20.848 0H11.152C10.7662 0 10.3963 0.187301 10.1235 0.520699C9.8507 0.854097 9.69745 1.30628 9.69745 1.77778V14.2222H1.45455C1.06878 14.2222 0.698807 14.4095 0.426026 14.7429C0.153246 15.0763 0 15.5285 0 16V30.2222C0 30.6937 0.153246 31.1459 0.426026 31.4793C0.698807 31.8127 1.06878 32 1.45455 32H30.5455C30.9312 32 31.3012 31.8127 31.574 31.4793C31.8468 31.1459 32 30.6937 32 30.2222V8.88889C32 8.41739 31.8468 7.96521 31.574 7.63181C31.3012 7.29841 30.9312 7.11111 30.5455 7.11111ZM9.69745 28.4444H2.90909V17.7778H9.69745V28.4444ZM19.3935 28.4444H12.6065V3.55556H19.3935V28.4444ZM29.0909 28.4444H22.3025V10.6667H29.0909V28.4444Z" />
</svg>
