<svg width="36" height="36" viewBox="0 0 36 36" fill="none" xmlns="http://www.w3.org/2000/svg">
<g id="maps-center 1" clip-path="url(#clip0_67_313)">
<path id="Vector" d="M33.75 16.875H31.4428C31.1734 13.6984 29.7891 10.7195 27.5348 8.46521C25.2805 6.21094 22.3016 4.82662 19.125 4.55715V2.25H16.875V4.55715C13.6984 4.82662 10.7195 6.21094 8.46521 8.46521C6.21094 10.7195 4.82662 13.6984 4.55715 16.875H2.25V19.125H4.55715C4.82662 22.3016 6.21094 25.2805 8.46521 27.5348C10.7195 29.7891 13.6984 31.1734 16.875 31.4428V33.75H19.125V31.4428C22.3016 31.1734 25.2805 29.7891 27.5348 27.5348C29.7891 25.2805 31.1734 22.3016 31.4428 19.125H33.75V16.875ZM19.125 29.1928V24.75H16.875V29.1928C14.2945 28.9298 11.8837 27.7846 10.0496 25.9504C8.21542 24.1163 7.07019 21.7055 6.80715 19.125H11.25V16.875H6.80715C7.07019 14.2945 8.21542 11.8837 10.0496 10.0496C11.8837 8.21542 14.2945 7.07019 16.875 6.80715V11.25H19.125V6.80715C21.7055 7.07019 24.1163 8.21542 25.9504 10.0496C27.7846 11.8837 28.9298 14.2945 29.1928 16.875H24.75V19.125H29.1928C28.9298 21.7055 27.7846 24.1163 25.9504 25.9504C24.1163 27.7846 21.7055 28.9298 19.125 29.1928Z" fill="white"/>
</g>
<defs>
<clipPath id="clip0_67_313">
<rect width="36" height="36" fill="white"/>
</clipPath>
</defs>
</svg>
