<svg width="27" height="26" viewBox="0 0 27 26" fill="none" xmlns="http://www.w3.org/2000/svg">
<path d="M25.7143 20.5636H24.75V10.5182C24.75 6.34932 20.5594 2.90432 15.1071 2.33114V1.18182C15.1071 0.528864 14.3879 0 13.5 0C12.6121 0 11.8929 0.528864 11.8929 1.18182V2.33114C6.44062 2.90432 2.25 6.34932 2.25 10.5182V20.5636H1.28571C0.574554 20.5636 0 20.9861 0 21.5091V22.4545C0 22.5845 0.144643 22.6909 0.321429 22.6909H9C9 24.5168 11.017 26 13.5 26C15.983 26 18 24.5168 18 22.6909H26.6786C26.8554 22.6909 27 22.5845 27 22.4545V21.5091C27 20.9861 26.4254 20.5636 25.7143 20.5636ZM13.5 24.1091C12.4353 24.1091 11.5714 23.4739 11.5714 22.6909H15.4286C15.4286 23.4739 14.5647 24.1091 13.5 24.1091ZM21.8571 20.5636H5.14286V10.5182C5.14286 8.87545 6.01071 7.33318 7.58973 6.17205C9.16875 5.01091 11.2661 4.37273 13.5 4.37273C15.7339 4.37273 17.8312 5.01091 19.4103 6.17205C20.9893 7.33318 21.8571 8.87545 21.8571 10.5182V20.5636Z" fill="white"/>
</svg>
