<svg width="25" height="25" viewBox="0 0 25 25" fill="none" xmlns="http://www.w3.org/2000/svg">
<g clip-path="url(#clip0_2_178)">
<path d="M12.1875 2.08331C12.0833 2.08331 12.0833 2.08331 11.9792 2.08331C11.9792 2.08331 11.9792 2.08331 11.875 2.08331C11.6667 2.08331 11.5625 2.08331 11.3542 2.08331L11.5625 4.16665C11.9792 4.16665 12.5 4.16665 12.9167 4.16665C17.0833 4.47915 20.5208 7.81248 20.7292 12.0833C20.9375 16.6666 17.3958 20.625 12.8125 20.8333C12.8125 20.8333 12.7083 20.8333 12.6042 20.8333C12.2917 20.8333 11.875 20.8333 11.5625 20.8333L11.4583 22.9166C11.875 22.9166 12.2917 22.9166 12.8125 22.9166C12.9167 22.9166 13.125 22.9166 13.2292 22.9166C18.8542 22.5 23.125 17.7083 22.9167 12.0833C22.7083 6.77081 18.4375 2.60415 13.2292 2.18748C13.0208 2.18748 12.9167 2.18748 12.7083 2.18748C12.5 2.08331 12.3958 2.08331 12.1875 2.08331ZM8.54167 2.81248C8.02083 3.12498 7.5 3.33331 6.97917 3.64581L8.125 5.41665C8.4375 5.20831 8.85417 4.99998 9.27083 4.79165L8.54167 2.81248ZM4.6875 5.62498C4.27083 6.04165 3.95833 6.56248 3.64583 6.97915L5.41667 8.02081C5.625 7.70831 5.9375 7.39581 6.25 6.97915L4.6875 5.62498ZM16.0417 8.74998L11.25 14.1666L8.4375 11.9791L7.29167 13.75L11.6667 17.0833L17.7083 10.2083L16.0417 8.74998ZM2.5 9.37498C2.29167 9.89581 2.1875 10.5208 2.1875 11.0416L4.27083 11.3541C4.375 10.9375 4.375 10.4166 4.58333 9.99998L2.5 9.37498ZM4.27083 13.5416L2.1875 13.75C2.1875 13.8541 2.1875 13.9583 2.1875 14.0625C2.29167 14.4791 2.39583 15 2.5 15.4166L4.47917 14.7916C4.375 14.4791 4.27083 14.0625 4.27083 13.6458V13.5416ZM5.41667 16.875L3.64583 18.0208C3.95833 18.5416 4.27083 18.9583 4.6875 19.375L6.25 18.0208C5.9375 17.6041 5.625 17.2916 5.41667 16.875ZM8.125 19.5833L6.97917 21.3541C7.5 21.6666 8.02083 21.875 8.54167 22.1875L9.375 20.3125C8.85417 20 8.4375 19.7916 8.125 19.5833Z" fill="#7C5437"/>
</g>
<defs>
<clipPath id="clip0_2_178">
<rect width="25" height="25" fill="white"/>
</clipPath>
</defs>
</svg>
