<svg width="32" height="32" viewBox="0 0 32 32" fill="none" xmlns="http://www.w3.org/2000/svg">
<path d="M31.5775 20.0675L29.1063 18.0673C29.2233 17.3887 29.2837 16.6958 29.2837 16.0029C29.2837 15.31 29.2233 14.6171 29.1063 13.9385L31.5775 11.9383C31.7638 11.7873 31.8972 11.5861 31.9599 11.3615C32.0226 11.1369 32.0116 10.8996 31.9283 10.6811L31.8944 10.5882C31.2141 8.7882 30.1954 7.11955 28.8875 5.66289L28.8196 5.58789C28.661 5.41128 28.4495 5.28432 28.2131 5.22375C27.9767 5.16318 27.7265 5.17183 27.4954 5.24858L24.4282 6.28079C23.2964 5.40216 22.0325 4.70926 20.6668 4.22351L20.0745 1.18758C20.0298 0.959146 19.9128 0.748989 19.7389 0.585033C19.5651 0.421076 19.3426 0.311081 19.1012 0.269662L18.9993 0.251803C17.0337 -0.0839344 14.9663 -0.0839344 13.0007 0.251803L12.8988 0.269662C12.6574 0.311081 12.4349 0.421076 12.2611 0.585033C12.0872 0.748989 11.9702 0.959146 11.9255 1.18758L11.3294 4.23779C9.97459 4.72364 8.71292 5.41618 7.59444 6.28794L4.5046 5.24858C4.27359 5.17122 4.02317 5.16225 3.78664 5.22286C3.55011 5.28347 3.33866 5.41078 3.18039 5.58789L3.11248 5.66289C1.80617 7.12058 0.787655 8.78896 0.105643 10.5882L0.0716888 10.6811C-0.0980824 11.1276 0.0415073 11.6276 0.422549 11.9383L2.92385 13.9599C2.80689 14.6314 2.7503 15.3171 2.7503 15.9993C2.7503 16.6851 2.80689 17.3708 2.92385 18.0388L0.422549 20.0603C0.236162 20.2114 0.102762 20.4126 0.0400887 20.6372C-0.0225851 20.8617 -0.0115633 21.099 0.0716888 21.3176L0.105643 21.4104C0.788501 23.2105 1.79958 24.8714 3.11248 26.3358L3.18039 26.4108C3.33905 26.5874 3.5505 26.7143 3.78689 26.7749C4.02329 26.8355 4.27351 26.8268 4.5046 26.7501L7.59444 25.7107C8.7187 26.5858 9.97501 27.2787 11.3294 27.7609L11.9255 30.8111C11.9702 31.0395 12.0872 31.2497 12.2611 31.4136C12.4349 31.5776 12.6574 31.6876 12.8988 31.729L13.0007 31.7468C14.9843 32.0844 17.0157 32.0844 18.9993 31.7468L19.1012 31.729C19.3426 31.6876 19.5651 31.5776 19.7389 31.4136C19.9128 31.2497 20.0298 31.0395 20.0745 30.8111L20.6668 27.7751C22.032 27.2907 23.303 26.5955 24.4282 25.7179L27.4954 26.7501C27.7264 26.8274 27.9768 26.8364 28.2134 26.7758C28.4499 26.7152 28.6613 26.5879 28.8196 26.4108L28.8875 26.3358C30.2004 24.8678 31.2115 23.2105 31.8944 21.4104L31.9283 21.3176C32.0981 20.8782 31.9585 20.3782 31.5775 20.0675ZM26.4277 14.3599C26.522 14.8992 26.5711 15.4529 26.5711 16.0065C26.5711 16.5601 26.522 17.1137 26.4277 17.653L26.1787 19.0853L28.9969 21.3676C28.5697 22.2994 28.0304 23.1814 27.3898 23.9963L23.8887 22.8212L22.7041 23.7427C21.8024 24.4428 20.7989 24.9928 19.7123 25.3785L18.2749 25.8893L17.5996 29.3538C16.5341 29.4681 15.4584 29.4681 14.3928 29.3538L13.7175 25.8822L12.2914 25.3643C11.2162 24.9785 10.2165 24.4285 9.32233 23.732L8.13771 22.8069L4.61401 23.9927C3.97265 23.1748 3.43693 22.2926 3.00684 21.364L5.85523 19.0603L5.61 17.6316C5.51946 17.0994 5.47041 16.5494 5.47041 16.0065C5.47041 15.46 5.51569 14.9135 5.61 14.3814L5.85523 12.9527L3.00684 10.649C3.43316 9.71675 3.97265 8.83811 4.61401 8.0202L8.13771 9.206L9.32233 8.28093C10.2165 7.58446 11.2162 7.03442 12.2914 6.64868L13.7213 6.13793L14.3966 2.66626C15.4567 2.55196 16.5395 2.55196 17.6034 2.66626L18.2787 6.13078L19.7161 6.64153C20.7989 7.02727 21.8062 7.57731 22.7079 8.27736L23.8925 9.19885L27.3935 8.02377C28.0349 8.84168 28.5706 9.72389 29.0007 10.6525L26.1825 12.9348L26.4277 14.3599ZM16.0038 9.36315C12.3367 9.36315 9.36383 12.1776 9.36383 15.6493C9.36383 19.121 12.3367 21.9355 16.0038 21.9355C19.6708 21.9355 22.6437 19.121 22.6437 15.6493C22.6437 12.1776 19.6708 9.36315 16.0038 9.36315ZM18.9917 18.4781C18.5998 18.8502 18.1341 19.1452 17.6213 19.3463C17.1085 19.5473 16.5588 19.6504 16.0038 19.6496C14.8757 19.6496 13.8156 19.2317 13.0158 18.4781C12.6228 18.1071 12.3111 17.6661 12.0987 17.1807C11.8864 16.6952 11.7775 16.1748 11.7784 15.6493C11.7784 14.5814 12.2198 13.5777 13.0158 12.8205C13.8156 12.0633 14.8757 11.649 16.0038 11.649C17.1318 11.649 18.1919 12.0633 18.9917 12.8205C19.3848 13.1916 19.6964 13.6325 19.9088 14.1179C20.1212 14.6034 20.2301 15.1238 20.2292 15.6493C20.2292 16.7172 19.7878 17.7209 18.9917 18.4781Z" />
</svg>
