<svg width="15" height="24" viewBox="0 0 15 24" fill="none" xmlns="http://www.w3.org/2000/svg">
<path d="M9.74718 4.49934C10.9892 4.49934 11.9968 3.49168 11.9968 2.24967C11.9968 1.00766 10.9892 0 9.74718 0C8.5052 0 7.49756 1.00766 7.49756 2.24967C7.49756 3.49168 8.5052 4.49934 9.74718 4.49934ZM14.1761 11.4874L13.0841 10.9343L12.6295 9.55641C11.9406 7.46609 10.019 6.00381 7.83969 5.99912C6.15248 5.99443 5.21982 6.47249 3.46699 7.1802C2.45466 7.58795 1.62512 8.36127 1.1377 9.3455L0.823689 9.98291C0.458126 10.7234 0.753388 11.6233 1.4892 11.9936C2.22033 12.3638 3.1108 12.0639 3.48105 11.3233L3.79506 10.6859C3.9591 10.3579 4.23093 10.1001 4.56837 9.96417L5.82441 9.45799L5.11203 12.3029C4.86832 13.2777 5.13077 14.3135 5.81035 15.0587L8.61768 18.1239C8.95513 18.4942 9.19415 18.9394 9.316 19.4222L10.1737 22.8576C10.3752 23.659 11.1907 24.1511 11.9921 23.9496C12.7935 23.7481 13.2856 22.9326 13.0841 22.1311L12.0437 17.9599C11.9218 17.4771 11.6828 17.0272 11.3454 16.6616L9.2129 14.3323L10.019 11.1124L10.2768 11.8858C10.5252 12.6403 11.0595 13.2637 11.7625 13.6199L12.8545 14.1729C13.5856 14.5432 14.4761 14.2432 14.8463 13.5027C15.2072 12.7669 14.9119 11.8576 14.1761 11.4874ZM3.44825 18.0817C3.29827 18.4614 3.07331 18.8035 2.78273 19.0894L0.439379 21.4375C-0.14646 22.0233 -0.14646 22.9748 0.439379 23.5606C1.02522 24.1465 1.97193 24.1465 2.55777 23.5606L5.34168 20.7766C5.62756 20.4907 5.85253 20.1486 6.00719 19.769L6.63989 18.1848C4.04814 15.3587 4.82614 16.2257 4.41839 15.668L3.44825 18.0817Z" fill="#2F55B5"/>
</svg>
