<svg width="37" height="37" viewBox="0 0 37 37" fill="none" xmlns="http://www.w3.org/2000/svg">
<path d="M4.62501 10.0208V10.0208C4.62501 9.22683 4.62501 8.82983 4.69971 8.50138C4.95564 7.37605 5.8344 6.49729 6.95973 6.24136C7.28818 6.16667 7.68518 6.16667 8.47918 6.16667L29.8333 6.16667C30.3047 6.16667 30.5404 6.16667 30.6869 6.31311C30.8333 6.45956 30.8333 6.69526 30.8333 7.16667V7.875C30.8333 10.7034 30.8333 12.1176 29.9547 12.9963C29.076 13.875 27.6618 13.875 24.8333 13.875H23.125M4.62501 10.0208V10.0208C4.62501 10.8148 4.62501 11.2118 4.69971 11.5403C4.95564 12.6656 5.8344 13.5444 6.95973 13.8003C7.28818 13.875 7.68518 13.875 8.47918 13.875L30.375 13.875C31.3178 13.875 31.7892 13.875 32.0821 14.1679C32.375 14.4608 32.375 14.9322 32.375 15.875L32.375 20.0417M4.62501 10.0208L4.62501 28.375C4.62501 30.2606 4.62501 31.2034 5.2108 31.7892C5.79659 32.375 6.73939 32.375 8.62501 32.375L30.375 32.375C31.3178 32.375 31.7892 32.375 32.0821 32.0821C32.375 31.7892 32.375 31.3178 32.375 30.375L32.375 26.2083M32.375 26.2083H25.125C24.1822 26.2083 23.7108 26.2083 23.4179 25.9154C23.125 25.6225 23.125 25.1511 23.125 24.2083V22.0417C23.125 21.0989 23.125 20.6275 23.4179 20.3346C23.7108 20.0417 24.1822 20.0417 25.125 20.0417H32.375M32.375 26.2083L32.375 20.0417" stroke="white" stroke-width="2"/>
</svg>
